<svg id="duck-icon" xmlns="http://www.w3.org/2000/svg" xmlns:xlink="http://www.w3.org/1999/xlink" x="0px" y="0px">
	<title>
	Duck icon playground
	</title>
	<path
   d="m 395.651,124.455 c -17.687,-0.973 -35.088,-4.894 -51.483,-11.602 -13.594,-36.737595 -48.452,-61.27352 -87.622,-61.67552 -0.19,-0.013 -0.352,-0.11 -0.545,-0.11 -8.678,-0.005 -15.971,-6.520979 -16.949,-15.143952 -0.978,-8.622976 4.671,-16.606952 13.128,-18.553946 8.457,-1.946994 17.029,2.761991 19.921,10.943967 1.017,2.872991 3.489,4.984985 6.485,5.540985 2.996,0.555997 6.062,-0.529 8.042,-2.845994 1.98,-2.316991 2.573,-5.513982 1.556,-8.386973 C 282.641,6.948661 266.614,-2.4523323 250.229,0.35967088 233.844,3.1716652 221.868,17.376582 221.867,34.000531 c 0.032,7.621979 2.639,15.009955 7.399,20.96394 -29.089,8.590973 -52.222,30.728907 -62.082,59.413529 -9.86,28.684 -5.227,60.367 12.433,85.027 2.007,2.696 2.301,6.301 0.758,9.288 -1.412,2.821 -4.322,4.577 -7.475,4.512 H 80.392 c -1.025,0.002 -2.009,-0.404 -2.733,-1.129 -0.548,-0.53 -0.857,-1.259 -0.858,-2.021 0.174,-10.315 -3.885,-20.251 -11.233,-27.492 -6.835,-6.914 -16.044,-10.967 -25.759,-11.338 -10.163,-0.239 -19.994,3.63 -27.267,10.733 -7.969,7.699 -12.492,18.29 -12.541,29.371 v 36.008 C 0.111,341.551 76.462,417.897 170.676,418 h 128.008 c 50.187,0.221 93.073,-36.107 101.107,-85.647 8.034,-49.54 -21.173,-97.56 -68.857,-113.211 -2.65,-0.906 -4.684,-3.059 -5.44,-5.755 -0.756,-2.697 -0.136,-5.593 1.656,-7.744 2.799,-3.358 5.37,-6.898 7.697,-10.599 64.184,-15.676 85.302,-38.371 83.428,-54.597 -0.858,-7.376 -7.291,-15.992 -22.624,-15.992 z m -70.3,110.816 c 39.702,13.015 64.044,52.968 57.405,94.218 -6.639,41.25 -42.291,71.546 -84.071,71.445 H 170.676 C 85.883,400.841 17.167,332.13 17.067,247.338 V 211.33 c 0.04,-6.453 2.684,-12.616 7.333,-17.092 3.842,-3.989 9.199,-6.155 14.733,-5.958 5.419,0.211 10.554,2.481 14.358,6.346 4.083,4.005 6.339,9.511 6.242,15.229 -0.068,5.324 2.018,10.449 5.783,14.213 3.938,3.961 9.29,6.193 14.875,6.204 h 92.508 c 9.545,0.04 18.302,-5.286 22.658,-13.779 4.449,-8.675 3.653,-19.112 -2.058,-27.013 -17.462,-24.463 -19.043,-56.866 -4.046,-82.913 14.998,-26.046607 43.815,-40.946562 73.738,-38.124571 29.923,2.821991 55.448,22.843931 65.314,51.234571 -0.796,3.296 -2.145,6.433 -3.99,9.278 -2.135,2.566 -4.575,4.862 -7.267,6.838 -1.333,1.079 -2.65,2.154 -3.9,3.25 -6.523,5.1 -11.322,12.08 -13.75,19.996 -2.26,9.971 1.056,20.385 8.667,27.213 2.497,2.091 5.161,3.976 7.965,5.634 -0.724,0.933 -1.385,1.868 -2.173,2.803 -5.39,6.458 -7.263,15.152 -5.008,23.256 2.257,8.102 8.351,14.58 16.302,17.326 z m 3.283,-56.246 c -3.195,-1.373 -6.182,-3.186 -8.875,-5.388 -2.953,-2.619 -4.319,-6.594 -3.6,-10.475 1.626,-4.528 4.572,-8.464 8.458,-11.3 1.075,-0.946 2.217,-1.871 3.375,-2.808 3.871,-2.883 7.343,-6.267 10.325,-10.063 1.845,-2.598 3.364,-5.412 4.525,-8.379 16.896,6.472 34.731,10.157 52.808,10.908 1.924,-0.047 3.841,0.254 5.658,0.888 l 0.009,-0.004 c 0.284,2.963 -11.975,22.192 -72.683,36.621 z"/>
	<path
   d="m 273.067,93.733364 c -14.139,0 -25.6,11.460646 -25.6,25.599646 0.015,14.132 11.468,25.585 25.6,25.6 14.138,0 25.6,-11.461 25.6,-25.6 0,-14.138 -11.461,-25.599646 -25.6,-25.599646 z m 0,34.133646 c -4.713,0 -8.533,-3.821 -8.533,-8.533 0.005,-4.711 3.823,-8.529 8.533,-8.533 4.713,0 8.533,3.821 8.533,8.533 10e-4,4.712 -3.82,8.533 -8.533,8.533 z"/>
</svg>