<svg width="80" height="80" viewBox="0 0 80 80" fill="none" xmlns="http://www.w3.org/2000/svg">
<path d="M36.0002 13.3333C36.0002 18.492 44.3495 22.6666 54.6668 22.6666V21.3333C54.6668 13.2333 48.1002 6.66663 40.0002 6.66663C31.9002 6.66663 25.3335 13.2333 25.3335 21.3333C31.2295 21.3333 36.0002 17.7546 36.0002 13.3333Z" fill="white"/>
<path d="M46.6665 41.3334H46.0838C45.6225 41.544 45.1478 41.732 44.6638 41.896C45.1492 41.732 45.6225 41.544 46.0838 41.3334C48.1172 40.404 49.9078 39.036 51.3132 37.3334C53.4078 34.7974 54.6665 31.5454 54.6665 28V29.3334H56.6665C59.2438 29.3334 61.3332 27.244 61.3332 24.6667C61.3332 22.0894 59.2438 20 56.6665 20H54.6665V21.3334V22.6667C44.3492 22.6667 35.9998 18.492 35.9998 13.3334C35.9998 17.7547 31.2292 21.3334 25.3332 21.3334V20H23.3332C20.7558 20 18.6665 22.0894 18.6665 24.6667C18.6665 27.244 20.7558 29.3334 23.3332 29.3334H25.3332V28C25.3332 33.9267 28.8558 39.02 33.9158 41.3334C34.3772 41.544 34.8518 41.732 35.3358 41.896C34.8505 41.732 34.3772 41.544 33.9158 41.3334H33.3332L39.9998 54.6667L46.6665 41.3334ZM41.8145 42.5427C42.2612 42.4867 42.7038 42.4174 43.1358 42.3214C42.7038 42.4187 42.2612 42.4867 41.8145 42.5427ZM43.2585 42.2907C43.7318 42.1814 44.1985 42.0534 44.6545 41.9C44.1985 42.0534 43.7318 42.1814 43.2585 42.2907ZM35.3465 41.9C35.8012 42.0534 36.2678 42.1814 36.7425 42.2907C36.2678 42.1814 35.8012 42.0534 35.3465 41.9ZM36.8625 42.3227C37.2958 42.4187 37.7385 42.4867 38.1838 42.544C37.7385 42.4867 37.2958 42.4187 36.8625 42.3227ZM39.9998 42.6667C40.5332 42.6667 41.0585 42.636 41.5758 42.58C41.0585 42.636 40.5332 42.6667 39.9998 42.6667C39.4665 42.6667 38.9412 42.636 38.4238 42.58C38.9412 42.636 39.4665 42.6667 39.9998 42.6667Z" fill="#FCEADE"/>
<path d="M16.0002 60C16.0002 57.0547 18.3882 54.6667 21.3335 54.6667H34.6668H40.0002L33.3335 41.3334H28.0002C17.6908 41.3334 9.3335 49.6907 9.3335 60V78.6667H16.0002V60Z" fill="white"/>
<path d="M58.6667 54.6666H45.3333H40H34.6667H21.3333C18.388 54.6666 16 57.0546 16 60V78.6666H64V60C64 57.0546 61.612 54.6666 58.6667 54.6666ZM40 70.6666C37.7907 70.6666 36 68.876 36 66.6666C36 64.4573 37.7907 62.6666 40 62.6666C42.2093 62.6666 44 64.4573 44 66.6666C44 68.876 42.2093 70.6666 40 70.6666Z" fill="#5FA3F4"/>
<path d="M40 70.6666C42.2091 70.6666 44 68.8758 44 66.6666C44 64.4575 42.2091 62.6666 40 62.6666C37.7909 62.6666 36 64.4575 36 66.6666C36 68.8758 37.7909 70.6666 40 70.6666Z" fill="#FCEADE"/>
<path d="M45.3333 54.6667H58.6667C61.612 54.6667 64 57.0547 64 60V78.6667H70.6667V60C70.6667 49.6907 62.3093 41.3334 52 41.3334H46.6667L40 54.6667H45.3333Z" fill="white"/>
<path d="M34.6665 28C35.4025 28 35.9998 28.5987 35.9998 29.3334H38.6665C38.6665 27.128 36.8718 25.3334 34.6665 25.3334C32.4612 25.3334 30.6665 27.128 30.6665 29.3334H33.3332C33.3332 28.5987 33.9305 28 34.6665 28Z" fill="#2B2D42"/>
<path d="M45.3335 28C46.0695 28 46.6668 28.5987 46.6668 29.3334H49.3335C49.3335 27.128 47.5388 25.3334 45.3335 25.3334C43.1282 25.3334 41.3335 27.128 41.3335 29.3334H44.0002C44.0002 28.5987 44.5975 28 45.3335 28Z" fill="#2B2D42"/>
<path d="M39.9998 61.3334C37.0585 61.3334 34.6665 63.7254 34.6665 66.6667C34.6665 69.608 37.0585 72 39.9998 72C42.9412 72 45.3332 69.608 45.3332 66.6667C45.3332 63.7254 42.9412 61.3334 39.9998 61.3334ZM39.9998 69.3334C38.5292 69.3334 37.3332 68.1374 37.3332 66.6667C37.3332 65.196 38.5292 64 39.9998 64C41.4705 64 42.6665 65.196 42.6665 66.6667C42.6665 68.1374 41.4705 69.3334 39.9998 69.3334Z" fill="#2B2D42"/>
<path d="M72 60C72 48.972 63.028 40 52 40H50.548C51.0227 39.5827 51.4693 39.1373 51.892 38.6667H53.3333C57.0093 38.6667 60 35.676 60 32V29.6507C61.6067 28.5733 62.6667 26.7413 62.6667 24.6667C62.6667 22.584 61.5987 20.7493 59.984 19.6733C59.8067 8.79733 50.9187 0 40 0C29.0813 0 20.1933 8.79733 20.016 19.6733C18.4013 20.7493 17.3333 22.584 17.3333 24.6667C17.3333 27.9747 20.0253 30.6667 23.3333 30.6667H24.2413C24.8653 34.3613 26.7533 37.624 29.4533 40H28C16.972 40 8 48.972 8 60V77.3333H0V80H9.33333H16H64H70.6667H80V77.3333H72V60ZM40 44C41.4267 44 42.804 43.7947 44.1213 43.4427L40 51.6853L35.8787 43.4427C37.196 43.7947 38.5733 44 40 44ZM49.8427 42.6667L44.5093 53.3333H42.1573L47.4907 42.6667H49.8427ZM57.3333 32C57.3333 34.0227 55.8187 35.6813 53.868 35.9453C54.792 34.3387 55.44 32.5587 55.7587 30.6667H56.6667C56.8947 30.6667 57.112 30.624 57.3333 30.5987V32ZM56.6667 28H56V21.3333H56.6667C58.5053 21.3333 60 22.8293 60 24.6667C60 26.504 58.5053 28 56.6667 28ZM40 2.66667C49.128 2.66667 56.6133 9.764 57.2693 18.728C57.068 18.7067 56.8733 18.6667 56.6667 18.6667H55.7587C54.484 11.112 47.912 5.33333 40 5.33333C32.088 5.33333 25.516 11.112 24.2413 18.6667H23.3333C23.1267 18.6667 22.932 18.7067 22.7307 18.728C23.3867 9.764 30.872 2.66667 40 2.66667ZM53.332 21.3C43.7093 20.9613 37.3333 17.0267 37.3333 13.3333C37.3333 12.5973 36.7373 12 36 12C35.2627 12 34.6667 12.5973 34.6667 13.3333C34.6667 16.6653 31.2213 19.4267 26.744 19.916C27.4547 13.228 33.128 8 40 8C47.34 8 53.3133 13.964 53.332 21.3ZM23.3333 28C21.4947 28 20 26.504 20 24.6667C20 22.8293 21.4947 21.3333 23.3333 21.3333H24V28H23.3333ZM26.6667 28V22.592C30.8307 22.2307 34.364 20.2227 36.128 17.4107C38.9173 21.1067 45.436 23.708 53.3333 23.9733V28C53.3333 31.004 52.3227 33.768 50.6413 36H40V38.6667H47.9653C47.2 39.24 46.3747 39.7333 45.4947 40.1333C41.996 41.7227 38.0027 41.7227 34.5027 40.1333C29.8893 38.0347 26.6667 33.392 26.6667 28ZM37.8427 53.3333H35.4907L30.1573 42.6667H32.5093L37.8427 53.3333ZM10.6667 60C10.6667 50.7133 18.0133 43.132 27.196 42.708L32.5093 53.3333H21.3333C17.6573 53.3333 14.6667 56.324 14.6667 60V77.3333H10.6667V60ZM17.3333 77.3333V60C17.3333 57.7947 19.128 56 21.3333 56H34.6667H40H45.3333H58.6667C60.872 56 62.6667 57.7947 62.6667 60V77.3333H17.3333ZM65.3333 77.3333V60C65.3333 56.324 62.3427 53.3333 58.6667 53.3333H47.4907L52.804 42.708C61.9867 43.132 69.3333 50.7133 69.3333 60V77.3333H65.3333Z" fill="#2B2D42"/>
<path d="M60.0002 65.3334H57.3335V74.6667H60.0002V65.3334Z" fill="#2B2D42"/>
<path d="M60.0002 60H57.3335V62.6667H60.0002V60Z" fill="#2B2D42"/>
<path d="M72.0002 12H69.3335V14.6667H72.0002V12Z" fill="#2B2D42"/>
<path d="M72.0002 17.3334H69.3335V20H72.0002V17.3334Z" fill="#2B2D42"/>
<path d="M72.0002 22.6666H69.3335V25.3333H72.0002V22.6666Z" fill="#2B2D42"/>
<path d="M10.6667 28H8V30.6667H10.6667V28Z" fill="#2B2D42"/>
<path d="M10.6667 33.3334H8V36H10.6667V33.3334Z" fill="#2B2D42"/>
<path d="M10.6667 38.6666H8V41.3333H10.6667V38.6666Z" fill="#2B2D42"/>
</svg>
