<svg width="80" height="80" viewBox="0 0 80 80" fill="none" xmlns="http://www.w3.org/2000/svg">
<g clip-path="url(#clip0)">
<path d="M73.5475 31.6686C73.5475 44.8515 62.8601 55.5395 49.6766 55.5395C36.493 55.5395 25.8057 44.8515 25.8057 31.6686C25.8057 18.485 36.493 7.797 49.6766 7.797C62.8601 7.797 73.5475 18.485 73.5475 31.6686Z" fill="#E7D1C4"/>
<path d="M6.64121 33.6039H44.5064C47.4065 33.6039 50.1967 34.7084 52.3105 36.6938L64.1356 47.7975H66.3683C73.1831 47.7975 78.708 53.3224 78.708 60.1372C78.708 62.5862 76.7233 64.5716 74.2743 64.5716H7.14032C3.90865 64.5716 1.28906 61.952 1.28906 58.7204V38.956C1.28906 36.0005 3.68494 33.6039 6.64121 33.6039Z" fill="#7CB2F2"/>
<path d="M74.2761 65.8623H7.14188C3.20362 65.8623 0 62.6572 0 58.7197V38.9568C0 35.2932 2.97991 32.3134 6.64277 32.3134H44.5081C47.7486 32.3134 50.8334 33.5346 53.196 35.7525L64.6483 46.507H66.3701C73.8856 46.507 80.0004 52.6211 80.0004 60.1373C80.0004 63.2936 77.4325 65.8623 74.2761 65.8623ZM6.64277 34.8946C4.40267 34.8946 2.58047 36.716 2.58047 38.9568V58.7204C2.58047 61.2352 4.62638 63.2811 7.14188 63.2811H74.2761C76.009 63.2811 77.4199 61.8716 77.4199 60.1373C77.4199 54.0446 72.4628 49.0874 66.3701 49.0874H64.1374C63.8088 49.0874 63.4928 48.9627 63.2536 48.7375L51.4292 37.6338C49.5472 35.8669 47.0893 34.8946 44.5081 34.8946H6.64277Z" fill="#4C241D"/>
<path d="M55.4845 56.8295H25.8072C25.094 56.8295 24.5166 56.2528 24.5166 55.5396C24.5166 54.8264 25.094 54.249 25.8072 54.249H55.4845C56.1969 54.249 56.7751 54.8264 56.7751 55.5396C56.7751 56.2528 56.1969 56.8295 55.4845 56.8295Z" fill="#4C241D"/>
<path d="M6.4502 37.5015H34.8375V49.0873H6.4502V37.5015Z" fill="#C1DBDC"/>
<path d="M34.8382 50.378H6.45099C5.73851 50.378 5.16113 49.8006 5.16113 49.0874V37.5015C5.16113 36.7883 5.73851 36.2109 6.45099 36.2109H34.8382C35.5507 36.2109 36.1288 36.7883 36.1288 37.5015V49.0874C36.1288 49.8006 35.5507 50.378 34.8382 50.378ZM7.74159 47.7975H33.5476V38.7914H7.74159V47.7975Z" fill="#4C241D"/>
<path d="M59.2285 49.0873H40V37.5015H43.7478C45.7443 37.5015 47.6647 38.2605 49.1214 39.6242L59.2285 49.0873Z" fill="#C1DBDC"/>
<path d="M59.2291 50.378H40.0008C39.2883 50.378 38.7109 49.8006 38.7109 49.0874V37.5015C38.7109 36.7883 39.2883 36.2109 40.0008 36.2109H43.7486C46.0809 36.2109 48.3033 37.0895 50.0044 38.6829L60.1114 48.1468C60.4975 48.5078 60.6245 49.0689 60.4296 49.5614C60.2347 50.0546 59.7592 50.378 59.2291 50.378ZM41.2914 47.7975H55.9627L48.2398 40.5656C47.0186 39.4219 45.4231 38.7914 43.7486 38.7914H41.2914V47.7975Z" fill="#4C241D"/>
<path d="M22.873 63.6761C22.873 67.7339 19.5837 71.0232 15.5259 71.0232C11.468 71.0232 8.17871 67.7339 8.17871 63.6761C8.17871 59.6182 11.468 56.329 15.5259 56.329C19.5837 56.329 22.873 59.6182 22.873 63.6761Z" fill="#6B4F5B"/>
<path d="M15.5267 72.3137C10.7637 72.3137 6.88965 68.439 6.88965 63.676C6.88965 58.9131 10.7644 55.0383 15.5267 55.0383C20.2896 55.0383 24.1644 58.9131 24.1644 63.676C24.1644 68.439 20.2896 72.3137 15.5267 72.3137ZM15.5267 57.6181C12.1864 57.6181 9.47012 60.3351 9.47012 63.6753C9.47012 67.0155 12.1864 69.7333 15.5267 69.7333C18.8669 69.7333 21.5839 67.0162 21.5839 63.676C21.5839 60.3358 18.8661 57.6181 15.5267 57.6181Z" fill="#4C241D"/>
<path d="M18.6417 63.6759C18.6417 65.3977 17.2463 66.7932 15.5245 66.7932C13.8027 66.7932 12.4072 65.3977 12.4072 63.6759C12.4072 61.9542 13.8027 60.5587 15.5245 60.5587C17.2463 60.5587 18.6417 61.9542 18.6417 63.6759Z" fill="#B5A19C"/>
<path d="M15.526 68.0838C13.0954 68.0838 11.1182 66.1066 11.1182 63.676C11.1182 61.2454 13.0954 59.2682 15.526 59.2682C17.9566 59.2682 19.9338 61.2454 19.9338 63.676C19.9338 66.1066 17.9566 68.0838 15.526 68.0838ZM15.526 61.8486C14.5182 61.8486 13.6986 62.6675 13.6986 63.676C13.6986 64.6838 14.5182 65.5026 15.526 65.5026C16.5331 65.5026 17.3533 64.6838 17.3533 63.676C17.3533 62.6675 16.5331 61.8486 15.526 61.8486Z" fill="#4C241D"/>
<path d="M74.3037 63.6761C74.3037 67.7339 71.0137 71.0232 66.9565 71.0232C62.8986 71.0232 59.6094 67.7339 59.6094 63.6761C59.6094 59.6182 62.8986 56.329 66.9565 56.329C71.0137 56.329 74.3037 59.6182 74.3037 63.6761Z" fill="#6B4F5B"/>
<path d="M66.9572 72.3137C62.195 72.3137 58.3203 68.439 58.3203 63.676C58.3203 58.9131 62.195 55.0383 66.9572 55.0383C71.7201 55.0383 75.5948 58.9131 75.5948 63.676C75.5948 68.439 71.7201 72.3137 66.9572 72.3137ZM66.9572 57.6181C63.617 57.6181 60.9007 60.3351 60.9007 63.6753C60.9007 67.0155 63.6178 69.7333 66.9572 69.7333C70.2966 69.7333 73.0144 67.0162 73.0144 63.676C73.0144 60.3358 70.2974 57.6181 66.9572 57.6181Z" fill="#4C241D"/>
<path d="M70.0731 63.6759C70.0731 65.3977 68.6769 66.7932 66.9558 66.7932C65.2341 66.7932 63.8379 65.3977 63.8379 63.6759C63.8379 61.9542 65.2341 60.5587 66.9558 60.5587C68.6769 60.5587 70.0731 61.9542 70.0731 63.6759Z" fill="#B5A19C"/>
<path d="M66.9567 68.0838C64.5261 68.0838 62.5488 66.1066 62.5488 63.676C62.5488 61.2454 64.5261 59.2682 66.9567 59.2682C69.3873 59.2682 71.3645 61.2454 71.3645 63.676C71.3645 66.1066 69.388 68.0838 66.9567 68.0838ZM66.9567 61.8486C65.9496 61.8486 65.1293 62.6675 65.1293 63.676C65.1293 64.6838 65.9496 65.5026 66.9567 65.5026C67.9645 65.5026 68.7841 64.6838 68.7841 63.676C68.7841 62.6675 67.9645 61.8486 66.9567 61.8486Z" fill="#4C241D"/>
<path d="M76.4458 54.249H73.5514C72.8389 54.249 72.2607 53.6717 72.2607 52.9584C72.2607 52.2452 72.8389 51.6686 73.5514 51.6686H76.4458C77.1583 51.6686 77.7364 52.2452 77.7364 52.9584C77.7364 53.6717 77.1583 54.249 76.4458 54.249Z" fill="#FFCE56"/>
<path d="M4.18485 60.7006H1.2906C0.577373 60.7006 0 60.1232 0 59.41C0 58.6968 0.577373 58.1201 1.2906 58.1201H4.18485C4.89733 58.1201 5.47544 58.6968 5.47544 59.41C5.47544 60.1232 4.89733 60.7006 4.18485 60.7006Z" fill="#F53E28"/>
<path d="M36.1312 23.2813H24.5181C23.8056 23.2813 23.2275 22.7039 23.2275 21.9907C23.2275 21.2774 23.8056 20.7008 24.5181 20.7008H36.1312C36.8437 20.7008 37.4211 21.2774 37.4211 21.9907C37.4211 22.7039 36.8437 23.2813 36.1312 23.2813Z" fill="#4C241D"/>
<path d="M32.2606 27.1522H14.1959C13.4834 27.1522 12.9053 26.5749 12.9053 25.8616C12.9053 25.1484 13.4834 24.5718 14.1959 24.5718H32.2606C32.9731 24.5718 33.5505 25.1484 33.5505 25.8616C33.5505 26.5749 32.9731 27.1522 32.2606 27.1522Z" fill="#4C241D"/>
</g>
<defs>
<clipPath id="clip0">
<rect width="80" height="80" fill="white"/>
</clipPath>
</defs>
</svg>
