<svg width="80" height="80" viewBox="0 0 80 80" fill="none" xmlns="http://www.w3.org/2000/svg">
<path d="M39.9999 15.4839C37.8659 15.4839 36.1289 13.7469 36.1289 11.613V6.45166H43.8708V11.613C43.8708 13.7469 42.1338 15.4839 39.9999 15.4839Z" fill="#7DB3F2"/>
<path d="M56.7743 74.8387H23.2259C21.092 74.8387 19.355 73.1016 19.355 70.9677V58.0645C19.355 55.9305 21.092 54.1935 23.2259 54.1935H25.8066C30.7871 54.1935 34.8389 50.1404 34.8389 45.1612V31.7237L40.7562 25.8064H54.728L60.6453 31.7237V70.9677C60.6453 73.1016 58.9083 74.8387 56.7743 74.8387Z" fill="#7DB3F2"/>
<path d="M60.0168 22.6928L49.0321 18.4684V3.87097C49.0321 1.73702 47.295 0 45.1611 0H34.8385C32.7046 0 30.9676 1.73702 30.9676 3.87097V18.6334L18.4928 26.3111C15.8397 27.9429 14.1934 30.8902 14.1934 34.0039V70.9677C14.1934 75.9469 18.2451 80 23.2256 80H56.774C61.7545 80 65.8063 75.9469 65.8063 70.9677V31.124C65.8063 27.4131 63.4795 24.026 60.0168 22.6928ZM46.4514 18.0645H33.5482V7.74194H46.4514V18.0645ZM34.8385 2.58065H45.1611C45.8718 2.58065 46.4514 3.15902 46.4514 3.87097V5.16129H33.5482V3.87097C33.5482 3.15902 34.1278 2.58065 34.8385 2.58065ZM63.2256 70.9677C63.2256 74.5249 60.3312 77.4193 56.774 77.4193H23.2256C19.6684 77.4193 16.774 74.5249 16.774 70.9677V34.0039C16.774 31.7805 17.9509 29.6762 19.8436 28.51L32.6233 20.6452H47.5017L59.0888 25.1021C61.5636 26.0528 63.2256 28.4734 63.2256 31.124V70.9677Z" fill="black"/>
<path d="M25.8066 51.6128C29.3638 51.6128 32.2582 48.7184 32.2582 45.1612V25.8064H29.3342L22.6054 29.6515C20.5999 30.7976 19.355 32.9429 19.355 35.2526V45.1612C19.355 48.7184 22.2494 51.6128 25.8066 51.6128ZM21.9356 35.2526C21.9356 33.8671 22.6829 32.5793 23.8869 31.8926L29.6776 28.5817V45.1612C29.6776 47.2952 27.9405 49.0322 25.8066 49.0322C23.6726 49.0322 21.9356 47.2952 21.9356 45.1612V35.2526Z" fill="black"/>
<path d="M19.355 67.0968H60.6453V69.6775H19.355V67.0968Z" fill="black"/>
<path d="M24.5161 61.9354H27.0968V64.5161H24.5161V61.9354Z" fill="black"/>
<path d="M29.6772 61.9354H32.2579V64.5161H29.6772V61.9354Z" fill="black"/>
<path d="M34.8389 61.9354H55.484V64.5161H34.8389V61.9354Z" fill="black"/>
</svg>
