<svg width="80" height="80" viewBox="0 0 80 80" fill="none" xmlns="http://www.w3.org/2000/svg">
<g clip-path="url(#clip0)">
<path d="M53.3123 20.7535C54.2391 18.0053 56.6635 15.9551 59.6171 15.5626L61.603 10.9136L54.7702 4.08266L50.7424 6.70426C49.212 5.84236 47.5934 5.17137 45.9125 4.70073L44.9177 0H35.084L34.0892 4.70073C32.4082 5.17137 30.7884 5.84236 29.2593 6.70426L25.2314 4.08266L18.4043 10.9098L20.3524 15.5507C23.3136 15.9457 25.692 18.0979 26.644 20.8751L27.097 19.8841C29.408 14.8595 34.4722 11.6129 40.0002 11.6129C45.479 11.6129 50.5256 14.8179 52.8555 19.7807L53.3123 20.7535Z" fill="#7DB3F2"/>
<path d="M50.5965 35.1897L45.1605 33.8294V33.2113C47.5654 31.5329 49.0327 28.7601 49.0327 25.8065V23.5509C49.0327 18.5383 45.1051 14.3435 40.2777 14.1974C37.8042 14.1186 35.4793 15.0271 33.7114 16.7433C31.9423 18.4596 30.9682 20.7611 30.9682 23.2258V25.8065C30.9682 28.7601 32.4343 31.5317 34.8392 33.2101V33.8294L29.4045 35.1897C26.5271 35.9085 24.5166 38.4829 24.5166 41.4491V43.728L28.1167 42.9278C29.1543 42.6966 30.2147 42.5807 31.2763 42.5807C32.7821 42.5807 34.2791 42.8144 35.7124 43.2725L41.6197 45.1613C42.2573 45.1613 42.8924 45.2502 43.5048 45.4259L51.6134 47.742H52.9037L55.4843 46.383V41.4491C55.4843 38.4829 53.4739 35.9085 50.5965 35.1897Z" fill="#7DB3F2"/>
<path d="M80 33.5485H77.1006L72.7791 35.8223C72.2927 35.5539 71.7868 35.3264 71.2412 35.1897L65.8052 33.8295V33.2114C68.2101 31.533 69.6774 28.7602 69.6774 25.8065V23.551C69.6774 18.5384 65.7497 14.3436 60.9224 14.1974C58.4526 14.125 56.124 15.0272 54.3561 16.7434C52.5869 18.4596 51.6129 20.7612 51.6129 23.2259V25.8065C51.6129 28.7602 53.079 31.5317 55.4839 33.2101V33.8295L50.3226 35.1217L50.596 35.1897C51.7912 35.4877 52.8232 36.119 53.636 36.9526L58.0645 35.8462V31.7598L57.4206 31.3874C55.4297 30.2363 54.1935 28.0967 54.1935 25.8065V23.2259C54.1935 21.4662 54.8891 19.8205 56.1536 18.5951C57.4168 17.3703 59.0927 16.71 60.8449 16.7781C64.2918 16.8814 67.0968 19.9201 67.0968 23.551V25.8065C67.0968 28.0967 65.8594 30.2363 63.8672 31.3899L63.222 31.7629L63.2271 35.8462L69.6736 37.4566L52.5844 46.4517H51.7937L43.8609 44.1848C43.2371 44.0078 42.5932 43.9353 41.9468 43.9107L36.1057 42.0439C33.4438 41.1909 30.5626 41.0636 27.8377 41.6672L20.4927 43.2996L20.5973 42.9342L20.6452 40.5495L13.8401 36.5796L16.7742 35.8462V31.7598L16.1303 31.3874C14.1394 30.2363 12.9032 28.0967 12.9032 25.8065V23.2259C12.9032 21.4662 13.5988 19.8205 14.8633 18.5951C16.1265 17.3703 17.8062 16.71 19.5546 16.7781C23.0015 16.8814 25.8064 19.9201 25.8064 23.551V25.8065C25.8064 28.0967 24.5691 30.2363 22.5769 31.3899L21.9317 31.7629L21.9367 35.8462L26.364 36.9526C27.178 36.119 28.2088 35.4877 29.404 35.1897L29.6774 35.1217L24.5149 33.8295V33.2114C26.9197 31.533 28.3871 28.7602 28.3871 25.8065V23.551C28.3871 18.5384 24.4594 14.3436 19.6321 14.1974C17.161 14.125 14.8337 15.0272 13.0658 16.7434C11.2966 18.4596 10.3226 20.7612 10.3226 23.2259V25.8065C10.3226 28.7602 11.7887 31.5317 14.1935 33.2101V33.8295L10.6477 34.7159L4.22064 30.9678H0V57.7048L12.6941 61.9356H15.1663L15.475 60.8544L19.3662 63.19C19.4298 65.3056 21.1265 67.008 23.2403 67.0824C23.3146 69.1873 25.0063 70.879 27.1113 70.9533C27.1856 73.0583 28.8773 74.75 30.9822 74.8243C31.0591 76.9784 32.8232 78.7098 34.995 78.7098C35.8014 78.7098 36.5921 78.4584 37.2568 78.0104L38.3997 79.0197C39.1161 79.6504 40.0384 80.0001 40.9961 80.0001H41.2349C43.3821 80.0001 45.1292 78.2643 45.1562 76.1241C47.2801 76.097 49.0001 74.377 49.0272 72.2531C51.1523 72.226 52.8736 70.5035 52.8982 68.3784C55.0428 68.3279 56.7742 66.5758 56.7742 64.4192C56.7742 64.2894 56.7679 64.1615 56.7547 64.0323L80 52.4106V33.5485ZM2.58065 33.5485H3.5213L12.8012 38.9611L8.1187 57.6903L2.58065 55.8437V33.5485ZM13.1124 59.3549L10.5727 58.5088L15.1216 40.3151L18.0645 42.0313V42.3999L13.2208 59.3549H13.1124ZM21.9355 63.0696C21.9355 62.6891 22.0892 62.3161 22.3589 62.0464L24.627 59.7783C24.8967 59.5086 25.2697 59.3549 25.6502 59.3549C26.4478 59.3549 27.0968 60.0039 27.0968 60.8015C27.0968 61.182 26.943 61.555 26.6734 61.8247L24.4052 64.0928C24.1356 64.3625 23.7626 64.5162 23.3821 64.5162C22.5844 64.5162 21.9355 63.8673 21.9355 63.0696ZM25.8064 66.9406C25.8064 66.5601 25.9602 66.1871 26.2298 65.9174L28.498 63.6493C28.7676 63.3796 29.1406 63.2259 29.5212 63.2259C30.3188 63.2259 30.9677 63.8748 30.9677 64.6725C30.9677 65.053 30.814 65.426 30.5444 65.6956L28.2762 67.9638C28.0066 68.2334 27.6336 68.3872 27.253 68.3872C26.4554 68.3872 25.8064 67.7382 25.8064 66.9406ZM29.6774 70.8116C29.6774 70.431 29.8311 70.058 30.1008 69.7884L32.3689 67.5202C32.6386 67.2506 33.0116 67.0968 33.3921 67.0968C34.1898 67.0968 34.8387 67.7458 34.8387 68.5434C34.8387 68.924 34.685 69.297 34.4153 69.5666L32.1472 71.8348C31.8775 72.1044 31.5045 72.2581 31.124 72.2581C30.3264 72.2581 29.6774 71.6092 29.6774 70.8116ZM34.995 76.1291C34.1973 76.1291 33.5484 75.4802 33.5484 74.6825C33.5484 74.302 33.7021 73.929 33.9718 73.6593L36.2399 71.3912C36.5096 71.1215 36.8826 70.9678 37.2631 70.9678C38.0607 70.9678 38.7097 71.6168 38.7097 72.4144C38.7097 72.7949 38.5559 73.1679 38.2863 73.4376L36.0181 75.7057C35.7485 75.9754 35.3755 76.1291 34.995 76.1291ZM41.2349 77.4194H40.9961C40.6672 77.4194 40.3522 77.2997 40.1071 77.0824L39.1419 76.2312L40.1109 75.2622C40.4568 74.9163 40.7252 74.5049 40.9236 74.0632L42.0968 75.0398C42.4036 75.2956 42.5806 75.6723 42.5806 76.0737C42.5806 76.8158 41.9771 77.4194 41.2349 77.4194ZM52.8062 65.8065H52.5832C52.2593 65.8065 51.943 65.6919 51.6954 65.4839L44.6982 59.6529L43.045 61.6363L49.84 67.2978C50.1455 67.5536 50.3226 67.9304 50.3226 68.3317C50.3226 69.0739 49.719 69.6775 48.9768 69.6775H48.6952C48.3821 69.6775 48.0759 69.5666 47.8345 69.365L40.826 63.5252L39.1728 65.5085L45.9677 71.1707C46.2746 71.4246 46.4516 71.8014 46.4516 72.2027C46.4516 72.9449 45.848 73.5485 45.1058 73.5485C44.6106 73.5485 44.128 73.3727 43.7481 73.057L40.8682 70.6566C40.2337 69.36 38.9302 68.4558 37.4036 68.4017C37.3293 66.2967 35.6376 64.605 33.5326 64.5307C33.4583 62.4257 31.7666 60.7341 29.6617 60.6597C29.5861 58.5056 27.8219 56.7743 25.6502 56.7743C24.5898 56.7743 23.5522 57.204 22.8024 57.9537L20.5343 60.2219C20.3988 60.3573 20.2867 60.511 20.1726 60.6635L16.209 58.2851L19.6837 46.1241L28.3947 44.1873C30.6798 43.6764 33.0891 43.7873 35.3175 44.5005L37.2184 45.1084L30.7743 48.3305C29.3019 49.0682 28.3871 50.5495 28.3871 52.1964V52.4516C28.3871 54.835 30.3264 56.7743 32.7098 56.7743C33.4929 56.7743 34.2635 56.5613 34.9332 56.1575L39.7379 53.2763C40.7031 52.6979 41.9985 52.8246 42.832 53.5743L53.7342 63.3859C54.026 63.6505 54.1935 64.026 54.1935 64.4192C54.1935 65.1847 53.5717 65.8065 52.8062 65.8065ZM77.4193 50.8153L55.6811 61.6854C55.6105 61.6105 55.5368 61.5393 55.4593 61.47L44.559 51.6583C43.6038 50.7964 42.3689 50.3227 41.0824 50.3227C40.1418 50.3227 39.2181 50.5785 38.4091 51.0636L33.6026 53.946C33.3329 54.1086 33.0248 54.1936 32.7098 54.1936C31.7484 54.1936 30.9677 53.413 30.9677 52.4516V52.1964C30.9677 51.5317 31.3369 50.9357 31.9304 50.6389L39.128 47.0401C40.3598 46.4233 41.8221 46.2854 43.1496 46.6672L51.2582 48.9832L53.222 49.0323L77.4193 36.2967V50.8153Z" fill="black"/>
</g>
<defs>
<clipPath id="clip0">
<rect width="80" height="80" fill="white"/>
</clipPath>
</defs>
</svg>
