<svg width="26" height="26" viewBox="0 0 26 26" fill="none" xmlns="http://www.w3.org/2000/svg">
<g clip-path="url(#clip0)">
<path d="M25.4086 21.8959L24.0871 24.0969C23.8642 24.4705 23.5552 24.7854 23.186 25.0154C22.9753 25.1481 22.746 25.2489 22.5057 25.3144C20.3134 25.9166 15.4738 26.0423 7.71826 18.2824C-0.0372735 10.5226 0.0840247 5.68729 0.686303 3.49493C0.751801 3.25467 0.852536 3.02542 0.985258 2.81471C1.21526 2.44539 1.53016 2.13643 1.90381 1.91353L4.10479 0.592044C4.6074 0.291108 5.25771 0.437946 5.58226 0.925678L7.49298 3.78525L9.09174 6.18558C9.40786 6.66524 9.30433 7.30707 8.85346 7.66304L8.32485 8.07467L6.88207 9.1925C6.45745 9.52416 6.33468 10.1141 6.59179 10.5876C7.17239 11.6275 7.71831 12.8536 10.4305 15.5702C13.1428 18.2868 14.3733 18.8284 15.4131 19.4089C15.8866 19.666 16.4766 19.5433 16.8082 19.1187L17.9261 17.6759L18.3377 17.1473C18.6937 16.6963 19.3354 16.5929 19.8151 16.909L22.2891 18.5597L25.075 20.4185C25.5627 20.7429 25.7095 21.3933 25.4086 21.8959Z" fill="#5FA3F4"/>
<path d="M24.5421 22.7626L23.2206 24.9636C23.2076 24.9809 23.1989 24.9983 23.1859 25.0156C22.9752 25.1483 22.746 25.249 22.5057 25.3145C20.3133 25.9167 15.4737 26.0424 7.71821 18.2826C-0.0373177 10.5227 0.0840314 5.68748 0.686309 3.49512C0.751807 3.25486 0.852542 3.02562 0.985265 2.81491C1.00258 2.80191 1.01994 2.79323 1.03726 2.78023L3.23825 1.45874C3.74086 1.15781 4.39117 1.30465 4.71571 1.79238L6.62643 4.65195L8.22519 7.05228C8.53745 7.5328 8.43438 8.17179 7.98691 8.52975L6.53544 9.65626L6.01552 10.0592C5.58993 10.3902 5.46701 10.981 5.72524 11.4543C6.30584 12.4942 6.85176 13.7203 9.56399 16.4369C12.2762 19.1535 13.5067 19.6951 14.5466 20.2756C15.0199 20.5339 15.6106 20.4109 15.9417 19.9854L16.3446 19.4654L17.4711 18.014C17.8291 17.5665 18.4681 17.4634 18.9486 17.7757L21.4226 19.4264L24.2085 21.2852C24.6962 21.6097 24.843 22.26 24.5421 22.7626Z" fill="#5FA3F4"/>
<path d="M20.5843 25.9991C21.2719 26.002 21.9569 25.9125 22.6207 25.733C23.3931 25.5165 24.0515 25.0092 24.4577 24.3176L25.7809 22.1183C26.2024 21.4181 25.9984 20.5102 25.3178 20.0577L20.0553 16.5482C19.3875 16.1064 18.4922 16.2518 17.9986 16.8822L16.4656 18.8532C16.2686 19.1129 15.9105 19.1883 15.6255 19.03L15.334 18.8692C14.3673 18.3423 13.1646 17.6864 10.7413 15.2622C8.31804 12.8381 7.66077 11.6345 7.13389 10.6696L6.97401 10.378C6.81351 10.0931 6.88744 9.73344 7.1473 9.53486L9.11696 8.00241C9.74717 7.50864 9.89273 6.6137 9.45146 5.94567L5.94198 0.683175C5.48964 0.00290897 4.58231 -0.201303 3.88219 0.21956L1.68161 1.54145C0.990173 1.94795 0.482893 2.60628 0.26614 3.3785C-0.526286 6.2658 0.0698479 11.2488 7.41031 18.5902C13.2495 24.4289 17.5965 25.9991 20.5843 25.9991ZM1.10193 3.60774C1.26014 3.05086 1.62764 2.57668 2.12745 2.28453L4.32804 0.96436C4.63182 0.781575 5.02562 0.870175 5.22186 1.16537L7.12826 4.02754L8.72834 6.42741C8.91996 6.71717 8.857 7.10554 8.58364 7.31996L6.61356 8.85241C6.01403 9.31085 5.84282 10.1403 6.21195 10.7987L6.36838 11.0829C6.92212 12.0985 7.61056 13.3619 10.124 15.8749C12.6374 18.3879 13.9004 19.0763 14.9155 19.63L15.2001 19.7868C15.8584 20.1559 16.6879 19.9848 17.1464 19.3852L18.6788 17.4151C18.8933 17.1419 19.2815 17.079 19.5714 17.2704L24.8334 20.7799C25.1289 20.9761 25.2175 21.37 25.0344 21.6737L23.7143 23.8743C23.4225 24.3735 22.949 24.7406 22.3928 24.8986C19.7273 25.6304 15.0705 25.0242 8.0234 17.9771C0.976261 10.93 0.370124 6.27362 1.10193 3.60774Z" fill="black"/>
<path d="M14.7326 4.3355C18.7986 4.34002 22.0936 7.63508 22.0982 11.7011C22.0982 11.9404 22.2922 12.1343 22.5314 12.1343C22.7707 12.1343 22.9647 11.9403 22.9647 11.7011C22.9596 7.15669 19.2769 3.47397 14.7326 3.46899C14.4933 3.46899 14.2993 3.66295 14.2993 3.90225C14.2993 4.14149 14.4933 4.3355 14.7326 4.3355Z" fill="black"/>
<path d="M14.7326 6.93511C17.3635 6.9382 19.4954 9.07019 19.4985 11.7011C19.4985 11.9404 19.6925 12.1343 19.9318 12.1343C20.1711 12.1343 20.365 11.9403 20.365 11.7011C20.3614 8.5918 17.8418 6.07216 14.7326 6.0686C14.4933 6.0686 14.2993 6.26261 14.2993 6.50186C14.2993 6.7411 14.4933 6.93511 14.7326 6.93511Z" fill="black"/>
<path d="M14.7326 9.53472C15.9284 9.53614 16.8975 10.5052 16.8989 11.7011C16.8989 11.9404 17.0929 12.1343 17.3322 12.1343C17.5715 12.1343 17.7654 11.9403 17.7654 11.7011C17.7635 10.0269 16.4068 8.67009 14.7326 8.66821C14.4933 8.66821 14.2993 8.86222 14.2993 9.10147C14.2993 9.34071 14.4933 9.53472 14.7326 9.53472Z" fill="black"/>
</g>
<defs>
<clipPath id="clip0">
<rect width="26" height="26" fill="white"/>
</clipPath>
</defs>
</svg>
