<svg width="80" height="80" viewBox="0 0 80 80" fill="none" xmlns="http://www.w3.org/2000/svg">
<path d="M40.0004 54.1936C36.443 54.1936 33.5488 57.0878 33.5488 60.6452C33.5488 62.662 34.5217 64.5691 36.1295 65.7794V74.8388H43.8714V65.7794C45.4792 64.5678 46.4521 62.662 46.4521 60.6452C46.4521 57.0878 43.5579 54.1936 40.0004 54.1936ZM41.9321 63.9755L41.2908 64.3484V72.2581H38.7101V64.3484L38.0688 63.9755C36.8546 63.2684 36.1295 62.0233 36.1295 60.6452C36.1295 58.511 37.8662 56.7742 40.0004 56.7742C42.1346 56.7742 43.8714 58.511 43.8714 60.6452C43.8714 62.0233 43.1462 63.2684 41.9321 63.9755Z" fill="black"/>
<path d="M16.7739 16.7742C13.2165 16.7742 10.3223 19.6684 10.3223 23.2258C10.3223 26.7832 13.2165 29.6774 16.7739 29.6774C20.3313 29.6774 23.2255 26.7832 23.2255 23.2258C23.2255 19.6684 20.3313 16.7742 16.7739 16.7742ZM16.7739 27.0968C14.6397 27.0968 12.9029 25.36 12.9029 23.2258C12.9029 21.0916 14.6397 19.3548 16.7739 19.3548C18.9081 19.3548 20.6448 21.0916 20.6448 23.2258C20.6448 25.36 18.9081 27.0968 16.7739 27.0968Z" fill="black"/>
<path d="M63.226 29.6774C66.7834 29.6774 69.6776 26.7832 69.6776 23.2258C69.6776 19.6684 66.7834 16.7742 63.226 16.7742C59.6686 16.7742 56.7744 19.6684 56.7744 23.2258C56.7744 26.7832 59.6686 29.6774 63.226 29.6774ZM63.226 19.3548C65.3602 19.3548 67.097 21.0916 67.097 23.2258C67.097 25.36 65.3602 27.0968 63.226 27.0968C61.0918 27.0968 59.3551 25.36 59.3551 23.2258C59.3551 21.0916 61.0918 19.3548 63.226 19.3548Z" fill="black"/>
<path d="M40.0004 16.7742C36.443 16.7742 33.5488 19.6684 33.5488 23.2258C33.5488 26.7832 36.443 29.6774 40.0004 29.6774C43.5579 29.6774 46.4521 26.7832 46.4521 23.2258C46.4521 19.6684 43.5579 16.7742 40.0004 16.7742ZM40.0004 27.0968C37.8662 27.0968 36.1295 25.36 36.1295 23.2258C36.1295 21.0916 37.8662 19.3548 40.0004 19.3548C42.1346 19.3548 43.8714 21.0916 43.8714 23.2258C43.8714 25.36 42.1346 27.0968 40.0004 27.0968Z" fill="black"/>
<path d="M56.7742 46.4516C69.5806 46.4516 80 36.0323 80 23.2258C80 10.4194 69.5806 0 56.7742 0H23.2258C10.4194 0 0 10.4194 0 23.2258C0 28.5265 1.82968 33.6865 5.16129 37.8103V54.0864C5.16129 56.28 6.9471 58.0645 9.14065 58.0645C10.2529 58.0645 11.3213 57.5935 12.0723 56.7742L21.5897 46.391C22.1484 46.431 22.6968 46.4516 23.2258 46.4516H25.8064V49.5794C23.5316 50.5781 21.9355 52.8452 21.9355 55.4839V73.5484C21.9355 77.1058 24.8297 80 28.3871 80H51.6129C55.1703 80 58.0645 77.1058 58.0645 73.5484V55.4839C58.0645 52.8452 56.4684 50.5781 54.1935 49.5794V46.4516H56.7742ZM55.4839 55.4839V73.5484C55.4839 75.6826 53.7471 77.4193 51.6129 77.4193H28.3871C26.2529 77.4193 24.5161 75.6826 24.5161 73.5484V55.4839C24.5161 53.3497 26.2529 51.6129 28.3871 51.6129H51.6129C53.7471 51.6129 55.4839 53.3497 55.4839 55.4839ZM40 36.129C35.0206 36.129 30.9677 40.1806 30.9677 45.1613V49.0323H28.3871V45.1613C28.3871 38.7587 33.5961 33.5484 40 33.5484C46.4039 33.5484 51.6129 38.7587 51.6129 45.1613V49.0323H49.0323V45.1613C49.0323 40.1806 44.9794 36.129 40 36.129ZM46.4516 46.4516V49.0323H33.5484V46.4516H46.4516ZM33.6787 43.871C34.2787 40.9303 36.8839 38.7097 40 38.7097C43.1161 38.7097 45.7213 40.9303 46.3213 43.871H33.6787ZM54.1277 43.871C53.4735 36.6477 47.391 30.9677 40 30.9677C32.609 30.9677 26.5265 36.6477 25.8723 43.871H23.2258C22.5677 43.871 21.9032 43.8374 21.1923 43.7677L20.5523 43.7045L10.1703 55.0297C9.9071 55.3187 9.53161 55.4839 9.14065 55.4839C8.36903 55.4839 7.74194 54.8568 7.74194 54.0864V36.8748L7.43871 36.5148C4.30581 32.7974 2.58065 28.0774 2.58065 23.2258C2.58065 11.8426 11.8426 2.58065 23.2258 2.58065H56.7742C68.1574 2.58065 77.4193 11.8426 77.4193 23.2258C77.4193 34.609 68.1574 43.871 56.7742 43.871H54.1277Z" fill="black"/>
</svg>
