<svg width="80" height="80" viewBox="0 0 80 80" fill="none" xmlns="http://www.w3.org/2000/svg">
<g clip-path="url(#clip0)">
<path d="M36.0003 29.3333H32.0003V25.3333C32.0003 24.597 31.4033 24 30.667 24H25.3337C24.5973 24 24.0003 24.597 24.0003 25.3333V29.3333H20.0003C19.264 29.3333 18.667 29.9303 18.667 30.6667V36C18.667 36.7363 19.264 37.3333 20.0003 37.3333H24.0003V41.3333C24.0003 42.0697 24.5973 42.6667 25.3337 42.6667H30.667C31.4033 42.6667 32.0003 42.0697 32.0003 41.3333V37.3333H36.0003C36.7367 37.3333 37.3337 36.7363 37.3337 36V30.6667C37.3337 29.9303 36.7367 29.3333 36.0003 29.3333ZM34.667 34.6667H30.667C29.9307 34.6667 29.3337 35.2637 29.3337 36V40H26.667V36C26.667 35.2637 26.07 34.6667 25.3337 34.6667H21.3337V32H25.3337C26.07 32 26.667 31.403 26.667 30.6667V26.6667H29.3337V30.6667C29.3337 31.403 29.9307 32 30.667 32H34.667V34.6667Z" fill="black"/>
<path d="M78.6673 39.9998C71.3333 40.02 64.2962 37.1053 59.125 31.9055L58.2767 31.0571C57.7559 30.537 56.9122 30.537 56.3913 31.0571L56.0007 31.4478V17.3333C55.9968 13.6529 53.0144 10.6712 49.3341 10.6666H40.0008V6.66664C39.9969 2.98631 37.0145 0.00455728 33.3341 0H22.6675C18.9879 0.00455728 16.0055 2.98631 16.0009 6.66664V10.6666H6.66761C2.98794 10.6712 0.00553384 13.6529 0.000976562 17.3333V43.9998C0.000976562 46.2088 1.79198 47.9998 4.00096 47.9998H35.0679C36.8973 61.406 44.8946 73.1839 56.681 79.8291C57.0866 80.0569 57.5821 80.0569 57.9877 79.8291C71.5775 72.1722 79.9895 57.7888 80.0006 42.1906V41.3331C80.0006 40.5968 79.4036 39.9998 78.6673 39.9998ZM18.6676 6.66664C18.6676 4.45766 20.4586 2.66665 22.6675 2.66665H33.3341C35.5438 2.66665 37.3341 4.45766 37.3341 6.66664V10.6666H34.6675V6.66664C34.6675 5.93031 34.0705 5.33331 33.3341 5.33331H22.6675C21.9312 5.33331 21.3342 5.93031 21.3342 6.66664V10.6666H18.6676V6.66664ZM32.0008 7.99996V10.6666H24.0009V7.99996H32.0008ZM2.66763 17.3333C2.66763 15.1243 4.45864 13.3333 6.66761 13.3333H49.3341C51.5437 13.3333 53.3341 15.1243 53.3341 17.3333V18.6666H2.66763V17.3333ZM34.6675 41.3331V42.1906C34.6675 43.2439 34.7131 44.2921 34.7905 45.3331H4.00096C3.26463 45.3331 2.66763 44.7361 2.66763 43.9998V21.3332H53.3341V33.8814C48.4324 37.854 42.3107 40.0148 36.0008 39.9998C35.2645 39.9998 34.6675 40.5968 34.6675 41.3331ZM57.334 77.1292C45.0886 69.9268 37.5021 56.8441 37.3341 42.6385C44.8621 42.3279 51.9988 39.2042 57.334 33.8853C62.6699 39.2042 69.8066 42.3279 77.3339 42.6385C77.1666 56.8441 69.5801 69.9268 57.334 77.1292Z" fill="black"/>
<path d="M55.9338 47.3813C53.2039 44.6515 48.7782 44.6515 46.0483 47.3813C43.3185 50.1112 43.3185 54.5369 46.0483 57.2668L56.3908 67.6092C56.9116 68.1294 57.7554 68.1294 58.2762 67.6092L68.6193 57.2668C71.3485 54.5369 71.3485 50.1112 68.6193 47.3813C65.8895 44.6515 61.4637 44.6515 58.7339 47.3813L57.3335 48.7811L55.9338 47.3813ZM60.6193 49.2668C61.7072 48.1535 63.3094 47.7114 64.8146 48.1086C66.3192 48.5057 67.495 49.6808 67.8921 51.186C68.2892 52.6906 67.8465 54.2928 66.7339 55.3814L57.3335 64.7811L47.9338 55.3814C46.8205 54.2928 46.3784 52.6906 46.7756 51.186C47.1727 49.6808 48.3478 48.5057 49.853 48.1086C51.3582 47.7114 52.9604 48.1535 54.0483 49.2668L56.3908 51.6092C56.9116 52.1294 57.7554 52.1294 58.2762 51.6092L60.6193 49.2668Z" fill="black"/>
</g>
<defs>
<clipPath id="clip0">
<rect width="80" height="80" fill="white"/>
</clipPath>
</defs>
</svg>
