<svg xmlns="http://www.w3.org/2000/svg" viewBox="0 0 512.001 512.001" enable-background="new 0 0 512.001 512.001"><path d="M422.327 332.132v-87.835c0-4.518-3.661-8.18-8.18-8.18s-8.18 3.662-8.18 8.18v87.835c0 21.936-17.846 39.784-39.784 39.784h-28.929v-32.55c0-21.745-17.691-39.435-39.434-39.435h-83.64c-21.745 0-39.434 17.691-39.434 39.434v32.55h-28.928c-21.937 0-39.784-17.846-39.784-39.784v-128.748c0-21.936 17.846-39.784 39.784-39.784h220.365c21.936 0 39.784 17.846 39.784 39.784v13.647c-.001 4.518 3.661 8.18 8.179 8.18 4.519 0 8.18-3.662 8.18-8.18v-13.647c0-30.957-25.186-56.144-56.144-56.144h-150.258c3.8-18.646 20.324-32.72 40.076-32.72 14.746 0 28.408 7.99 35.658 20.851 2.217 3.936 7.206 5.326 11.142 3.109 3.935-2.218 5.328-7.207 3.109-11.142-8.787-15.591-24.316-26.059-41.73-28.582v-38.614c12.929-3.588 22.45-15.456 22.45-29.511 0-16.889-13.74-30.63-30.63-30.63s-30.63 13.741-30.63 30.63c0 14.056 9.52 25.923 22.45 29.511v38.612c-25.037 3.598-44.888 23.448-48.486 48.486h-53.517c-30.958 0-56.144 25.186-56.144 56.144v128.749c0 28.179 20.87 51.569 47.964 55.541v22.97c-27.094 3.973-47.964 27.361-47.964 55.541v37.636c0 4.518 3.661 8.18 8.18 8.18s8.18-3.662 8.18-8.18v-37.636c0-21.937 17.846-39.784 39.784-39.784h162.537c4.519 0 8.18-3.662 8.18-8.18s-3.661-8.18-8.18-8.18h-154.354v-21.765h204.005v21.765h-22.381c-4.519 0-8.18 3.662-8.18 8.18s3.661 8.18 8.18 8.18h30.561c21.936 0 39.784 17.846 39.784 39.784v37.637c0 4.518 3.661 8.18 8.18 8.18s8.18-3.662 8.18-8.18v-37.637c0-28.179-20.87-51.569-47.964-55.541v-22.97c27.094-3.973 47.963-27.362 47.963-55.541zm-180.597-301.502c0-7.868 6.401-14.27 14.27-14.27s14.27 6.402 14.27 14.27-6.401 14.269-14.27 14.269-14.27-6.401-14.27-14.269zm-35.73 341.285h-14.894v-32.55c0-9.84 6.203-18.238 14.894-21.549v54.099zm41.821 0h-25.46v-55.624h25.46v55.624zm73.074 0h-14.894v-21.825c0-4.518-3.661-8.18-8.18-8.18s-8.18 3.662-8.18 8.18v21.825h-25.46v-55.624h25.46v11.985c0 4.518 3.661 8.18 8.18 8.18s8.18-3.662 8.18-8.18v-10.461c8.692 3.312 14.894 11.709 14.894 21.549v32.551zM346.926 209.407c-21.951 0-39.809 17.858-39.809 39.809 0 21.951 17.858 39.809 39.809 39.809 21.951 0 39.809-17.858 39.809-39.809 0-21.951-17.859-39.809-39.809-39.809zm0 63.258c-12.93 0-23.449-10.519-23.449-23.449 0-12.93 10.519-23.449 23.449-23.449s23.449 10.519 23.449 23.449c0 12.93-10.519 23.449-23.449 23.449zM165.075 209.407c-21.951 0-39.809 17.858-39.809 39.809 0 21.951 17.858 39.809 39.809 39.809 21.951 0 39.809-17.858 39.809-39.809.001-21.951-17.858-39.809-39.809-39.809zm0 63.258c-12.93 0-23.449-10.519-23.449-23.449 0-12.93 10.519-23.449 23.449-23.449 12.93 0 23.449 10.519 23.449 23.449.001 12.93-10.519 23.449-23.449 23.449zM202.833 447.653h-5.725c-4.519 0-8.18 3.662-8.18 8.18s3.661 8.18 8.18 8.18h5.725c4.519 0 8.18-3.662 8.18-8.18s-3.661-8.18-8.18-8.18zM175.295 447.653h-21.538c-4.519 0-8.18 3.662-8.18 8.18s3.662 8.18 8.18 8.18h21.538c4.519 0 8.18-3.662 8.18-8.18s-3.661-8.18-8.18-8.18zM202.833 473.827h-49.076c-4.519 0-8.18 3.662-8.18 8.18s3.661 8.18 8.18 8.18h49.076c4.519 0 8.18-3.662 8.18-8.18s-3.661-8.18-8.18-8.18zM358.245 447.653h-49.078c-4.519 0-8.18 3.662-8.18 8.18s3.661 8.18 8.18 8.18h49.078c4.519 0 8.18-3.662 8.18-8.18s-3.662-8.18-8.18-8.18zM358.245 473.827h-49.078c-4.519 0-8.18 3.662-8.18 8.18s3.661 8.18 8.18 8.18h49.078c4.519 0 8.18-3.662 8.18-8.18s-3.662-8.18-8.18-8.18z"/></svg>