<svg xmlns="http://www.w3.org/2000/svg" viewBox="0 0 487.253 487.253" enable-background="new 0 0 487.253 487.253"><path d="M213.465 113.562c-13.482 0-24.45 10.968-24.45 24.45s10.968 24.45 24.45 24.45c13.481 0 24.45-10.968 24.45-24.45s-10.968-24.45-24.45-24.45zm13.54 19.45h-8.539v-8.54c3.945 1.463 7.076 4.594 8.539 8.54zm-18.54-8.539v8.54h-8.54c1.463-3.947 4.594-7.078 8.54-8.54zm-8.54 18.539h8.54v8.539c-3.946-1.462-7.077-4.593-8.54-8.539zm18.54 8.54v-8.539h8.539c-1.462 3.945-4.593 7.076-8.539 8.539zM272.372 113.562c-13.481 0-24.45 10.968-24.45 24.45s10.968 24.45 24.45 24.45 24.45-10.968 24.45-24.45-10.969-24.45-24.45-24.45zm0 10c6.208 0 11.499 3.943 13.539 9.45h-27.079c2.041-5.507 7.332-9.45 13.54-9.45zm0 28.9c-6.208 0-11.499-3.943-13.539-9.45h27.079c-2.042 5.507-7.332 9.45-13.54 9.45zM362.581 343.257c-3.739-3.739-8.411-6.203-13.491-7.182v-22.636h7.499v-50.219c0-18.039-14.676-32.715-32.715-32.715h-5v17.57h-8.822v-17.57h-13.851v-7.118h34.295v-50.845h-10.049v-28.717c0-20.702-8.063-40.172-22.705-54.826-9.012-9.005-19.852-15.51-31.677-19.193-.053-11.001-7.812-20.208-18.144-22.493v-18.763c5.66-2.053 9.722-7.469 9.722-13.829 0-8.117-6.604-14.721-14.721-14.721s-14.722 6.604-14.722 14.722c0 6.36 4.062 11.775 9.722 13.829v18.762c-10.344 2.286-18.112 11.505-18.154 22.517-31.476 9.869-54.378 39.307-54.378 73.996v28.717h-10.049v50.845h34.294v7.118h-13.851v17.57h-8.822v-17.57h-5c-18.039 0-32.714 14.676-32.714 32.715v50.219h8.915v22.636c-5.08.978-9.752 3.443-13.491 7.182-10.196 10.196-10.196 26.786 0 36.983l3.536 3.535 14.956-14.956 14.956 14.956 3.536-3.535c10.196-10.196 10.196-26.786 0-36.982-3.739-3.739-8.412-6.204-13.492-7.182v-22.636h18.799v-33.482h8.822v34.88c0 13.744 8.131 25.619 19.833 31.085v41.863c0 13.106 7.75 24.43 18.905 29.647v27.566h-3.976c-20.542 0-37.255 16.713-37.255 37.256v5h66.96v-42.256h-15.729v-24.73c1.251.146 2.521.229 3.81.229h5v-71.369h19.173v71.369h5c1.289 0 2.559-.083 3.81-.229v24.727h-15.729v42.256h66.96v-5c0-20.543-16.713-37.256-37.256-37.256h-3.975v-27.566c11.154-5.217 18.904-16.541 18.904-29.647v-41.863c11.701-5.465 19.833-17.34 19.833-31.085v-34.88h8.822v33.482h20.216v22.636c-5.08.978-9.753 3.443-13.492 7.182-10.196 10.196-10.196 26.786 0 36.983l3.536 3.535 14.956-14.956 14.956 14.956 3.536-3.535c10.194-10.196 10.194-26.786-.002-36.982zm-205.022 25.816l-14.396-14.396-14.396 14.396c-3.08-6.064-2.088-13.681 2.976-18.745 3.05-3.051 7.106-4.73 11.42-4.73s8.37 1.68 11.42 4.731c5.064 5.063 6.056 12.68 2.976 18.744zm72.692 108.18h-46.5c2.354-12.65 13.474-22.256 26.796-22.256h19.705v22.256zm71.836 0h-46.501v-22.256h19.705c13.321.001 24.441 9.607 26.796 22.256zm-59.165-467.253c2.604 0 4.722 2.118 4.722 4.722s-2.118 4.722-4.722 4.722-4.722-2.118-4.722-4.722 2.118-4.722 4.722-4.722zm0 46.763c6.381 0 11.71 4.575 12.896 10.618-4.224-.704-8.531-1.084-12.899-1.084-4.397 0-8.704.387-12.903 1.094 1.182-6.048 6.517-10.628 12.906-10.628zm-67.532 87.063c0-37.235 30.293-67.529 67.528-67.529 18.033 0 34.993 7.023 47.752 19.773 12.753 12.762 19.776 29.722 19.776 47.755v28.717h-135.056v-28.716zm-10.049 69.561v-30.845h155.156v30.845h-155.156zm34.294 10h86.566v7.118h-86.566v-7.118zm-42.673 80.052h-17.714v-40.219c0-10.808 7.586-19.877 17.714-22.16v62.379zm10-33.482v-11.881h8.822v11.881h-8.822zm56.37 139.988c-10.128-2.283-17.715-11.352-17.715-22.16v-38.655h17.715v60.815zm56.888-60.815v38.655c0 10.808-7.586 19.877-17.714 22.16v-60.815h17.714zm19.832-34.293c0 13.395-10.898 24.293-24.293 24.293h-65.681c-13.396 0-24.293-10.898-24.293-24.293v-74.332h114.268v74.332zm18.82-44.88h-8.82v-11.881h8.82v11.881zm10.002-28.897c10.128 2.283 17.715 11.352 17.715 22.16v40.219h-17.715v-62.379zm29.612 128.013l-14.396-14.396-14.396 14.396c-3.08-6.064-2.088-13.681 2.976-18.745 3.05-3.051 7.106-4.73 11.42-4.73s8.37 1.68 11.42 4.731c5.064 5.063 6.056 12.68 2.976 18.744zM242.918 246.586c-23.838 0-43.232 19.394-43.232 43.232s19.394 43.232 43.232 43.232 43.232-19.394 43.232-43.232-19.393-43.232-43.232-43.232zm0 76.464c-18.324 0-33.232-14.908-33.232-33.232s14.908-33.232 33.232-33.232 33.232 14.908 33.232 33.232-14.907 33.232-33.232 33.232zM242.918 265.252c-13.545 0-24.565 11.02-24.565 24.565s11.02 24.565 24.565 24.565 24.565-11.02 24.565-24.565-11.019-24.565-24.565-24.565zm0 39.131c-8.031 0-14.565-6.534-14.565-14.565s6.534-14.565 14.565-14.565 14.565 6.534 14.565 14.565-6.533 14.565-14.565 14.565zM242.92 284.815c-1.32 0-2.61.54-3.54 1.47-.93.93-1.46 2.22-1.46 3.53 0 1.32.53 2.61 1.46 3.54.93.93 2.22 1.46 3.54 1.46 1.31 0 2.6-.53 3.53-1.46s1.47-2.22 1.47-3.54-.54-2.6-1.47-3.53-2.21-1.47-3.53-1.47z"/></svg>