<?xml version="1.0" encoding="utf-8"?>
<!-- Svg Vector Icons : http://www.onlinewebfonts.com/icon -->
<!DOCTYPE svg PUBLIC "-//W3C//DTD SVG 1.1//EN" "http://www.w3.org/Graphics/SVG/1.1/DTD/svg11.dtd">
<svg version="1.1" xmlns="http://www.w3.org/2000/svg" xmlns:xlink="http://www.w3.org/1999/xlink" x="0px" y="0px" viewBox="0 0 1000 1000" enable-background="new 0 0 1000 1000" xml:space="preserve">
<metadata> Svg Vector Icons : http://www.onlinewebfonts.com/icon </metadata>
<g><g transform="translate(0.000000,511.000000) scale(0.100000,-0.100000)"><path d="M4726.3,4928.6L4628,4850l117.9-148.8l117.9-148.8V2157.9V-239.5h140.4h140.4v2397.4v2394.6l117.9,148.8l117.9,148.8l-98.3,78.6c-53.3,44.9-106.6,81.4-117.9,81.4s-53.4-33.7-89.8-75.8l-70.2-78.6l-70.2,78.6c-36.5,42.1-78.6,75.8-89.8,75.8C4833,5010,4779.6,4973.5,4726.3,4928.6z"/><path d="M7466.2,4617c-176.9-140.4-213.4-547.4-64.6-741.1c134.7-176.9,306-171.2,429.5,16.8c148.8,221.8,87,640-106.7,738.3C7617.7,4687.2,7550.4,4684.4,7466.2,4617z"/><path d="M6716.6,4588.9c-115.1-11.2-412.7-30.9-659.7-39.3c-247-11.2-502.5-25.3-567.1-33.7l-120.7-14v-421.1v-418.3H5925c541.8,2.8,1257.6,36.5,1282.9,61.8c5.6,5.6-16.8,67.4-50.5,137.6c-81.4,162.8-87,524.9-11.2,665.3l50.5,89.8l-134.7-2.8C6986.1,4611.4,6831.7,4600.1,6716.6,4588.9z"/><path d="M2219.4,4462.6c-190.9-190.9-168.4-536.2,42.1-673.7c67.4-42.1,586.7-75.8,1782.6-115.1l595.1-19.6v426.7v423.9h-777.6c-429.5,0-957.2,8.4-1173.4,16.8l-393,19.6L2219.4,4462.6z"/><path d="M4361.4,1290.4c-98.3-22.5-182.5-44.9-188.1-50.5c-8.4-5.6,5.6-61.8,28.1-126.3l42.1-115.1l-87-28.1c-126.3-44.9-129.1-42.1-165.6,81.4c-39.3,131.9-39.3,131.9-376.2-33.7c-345.3-171.2-342.5-168.4-249.8-289.1c81.4-109.5,81.4-106.7-56.1-185.3c-42.1-25.3-64.6-14-126.3,61.8l-78.6,92.6l-129.1-109.5c-73-59-188.1-176.9-261.1-261.1C2590,187.2,2587.2,176,2634.9,139.5C2806.2,15.9,2800.5,32.8,2724.7-57l-70.2-81.4l-87,61.8c-44.9,33.7-98.3,61.8-112.3,61.8c-16.8,0-101.1-143.2-185.3-314.4c-174.1-345.3-174.1-317.2,16.8-384.6c70.2-25.2,73-33.7,42.1-129.1c-28.1-89.8-36.5-101.1-101.1-81.4c-160,42.1-179.7,33.7-216.2-115.1c-22.5-75.8-47.7-238.6-56.1-356.5l-19.6-219h131.9c129.1,0,129.1,0,129.1-98.3c0-98.2,0-98.2-129.1-98.2h-131.9l19.6-216.2c8.4-120.7,33.7-280.7,56.1-359.3c36.5-148.8,56.1-157.2,216.2-115.1c64.6,19.6,73,8.4,101.1-81.4c30.9-95.5,28.1-103.9-42.1-129.1c-190.9-67.4-188.1-42.1-36.5-350.9c174.1-353.7,196.5-373.4,314.4-289.2l89.8,64.6l70.2-81.4c75.8-89.8,81.4-73-89.8-196.5c-50.5-36.5-44.9-47.7,78.6-185.3c73-81.4,190.9-199.3,261.1-261.1l129.1-112.3l75.8,89.8c87,103.9,103.9,106.7,193.7,33.7l64.6-56.1l-75.8-101.1c-89.8-117.9-106.7-101.1,238.6-275.1c350.9-179.6,348.1-179.6,390.2-42.1c30.9,103.9,42.1,112.3,109.5,95.5c115.1-28.1,131.9-56.1,95.5-174.1c-16.8-56.1-28.1-106.7-22.5-112.3c16.8-16.8,390.2-87,558.6-103.9l160-16.8v126.3v126.3h112.3h112.3v-126.3V-4790l148.8,16.8c162.8,19.7,558.7,92.6,572.7,109.5c5.6,2.8-8.4,58.9-30.9,123.5l-42.1,115.1l87,28.1c126.3,44.9,129.1,42.1,165.6-81.4c39.3-134.7,39.3-134.7,390.2,44.9c345.3,174.1,328.4,157.2,238.6,275.1l-75.8,101.1l64.6,56.1c89.8,73,106.7,70.2,196.5-33.7l75.8-92.6l123.5,115.1c70.2,64.6,188.1,182.5,261.1,261.1c146,157.2,146,160-22.5,258.2c-47.7,28.1-47.7,30.9,0,109.5c58.9,101,73,101,182.5,22.5l87-58.9l56.1,67.4c61.8,73,272.3,505.3,272.3,555.8c0,28.1-36.5,47.7-188.1,101.1c-25.2,8.4-25.2,36.5,0,112.3c28.1,89.8,36.5,101,101.1,81.4c176.9-47.7,182.5-42.1,233,199.3c25.2,123.5,47.7,283.5,47.7,359.3l2.8,132h-126.3c-126.3,0-126.3,0-126.3,98.2c0,98.3,0,98.3,126.3,98.3h126.3l-2.8,134.7c0,73-22.5,233-47.7,356.5c-50.5,241.4-56.1,247-233,199.3c-64.6-19.6-73-8.4-101.1,81.4c-33.7,109.5-42.1,98.3,154.4,168.4c16.9,5.6,33.7,25.3,33.7,44.9c0,50.5-210.5,482.8-272.3,555.8l-56.1,67.4l-92.6-64.6l-92.6-67.4L7283.7-57c-75.8,89.8-81.4,73,89.8,196.5c50.5,36.5,44.9,47.7-78.6,185.3C7140.5,496,6930,686.9,6893.5,686.9c-14,0-47.7-36.5-73-84.2c-59-98.2-92.6-103.9-185.3-28.1l-64.6,56.1l75.8,101.1c89.8,117.9,92.6,117.9-252.6,286.3c-336.9,165.6-336.9,165.6-376.2,33.7c-36.5-123.5-39.3-126.3-165.6-81.4l-87,28.1l42.1,115.1c22.4,64.6,36.5,120.7,30.9,126.3c-14,11.2-384.6,92.6-432.3,92.6c-28.1,0-36.5-151.6-36.5-668.1V-0.9L5560-65.4c527.8-185.3,940.4-609.2,1108.9-1142.5c87-277.9,87-732.7,0-1010.6c-165.6-519.3-547.4-923.6-1069.5-1131.3c-174.1-67.4-219-75.8-595.1-75.8c-376.2,0-421.1,8.4-595.1,75.8c-670.9,266.7-1094.8,842.2-1136.9,1541.2c-47.7,766.4,452,1510.3,1173.4,1743.3l193.7,61.8v668.1C4639.3,1425.2,4670.2,1355,4361.4,1290.4z"/></g></g>
</svg>