<svg height="512pt" viewBox="0 0 512 512" width="512pt" xmlns="http://www.w3.org/2000/svg"><path d="M297.277 508.668c-2.133.348-4.273.668-6.422.961 2.148-.293 4.289-.613 6.422-.961zm0 0M302.398 507.793c-1.02.188-2.039.359-3.059.535 1.02-.176 2.039-.348 3.059-.535zm0 0M285.137 510.34c-2.496.281-5.008.531-7.527.742 2.52-.211 5.031-.461 7.527-.742zm0 0M290.055 509.738c-1.199.16-2.406.309-3.609.449 1.203-.141 2.41-.289 3.609-.449zm0 0M309.367 506.41c-.898.191-1.801.383-2.703.566.902-.184 1.805-.375 2.703-.566zm0 0M326.664 502.113c-.727.207-1.453.402-2.18.605.727-.203 1.453-.398 2.18-.605zm0 0M321.434 503.543c-.789.207-1.582.418-2.375.617.793-.199 1.586-.406 2.375-.617zm0 0M314.59 505.254c-.836.195-1.68.379-2.523.566.844-.188 1.688-.371 2.523-.566zm0 0M277.527 511.09c-1.348.113-2.695.215-4.047.305 1.352-.09 2.699-.191 4.047-.305zm0 0M512 256c0-141.363-114.637-256-256-256s-256 114.637-256 256 114.637 256 256 256c1.504 0 3-.031 4.5-.059v-199.285h-55v-64.098h55v-47.168c0-54.703 33.395-84.477 82.191-84.477 23.367 0 43.453 1.742 49.309 2.52v57.172h-33.648c-26.547 0-31.688 12.617-31.688 31.129v40.824h63.477l-8.273 64.098h-55.203v189.453c107.004-30.676 185.336-129.258 185.336-246.109zm0 0M272.914 511.43c-2.664.172-5.34.309-8.023.398 2.684-.09 5.359-.227 8.023-.398zm0 0M264.754 511.836c-1.414.047-2.832.082-4.25.105 1.418-.023 2.836-.059 4.25-.105zm0 0"/></svg>